<?xml version="1.0" encoding="utf-8"?>
<!-- Generator: Adobe Illustrator 26.0.3, SVG Export Plug-In . SVG Version: 6.00 Build 0)  -->
<svg version="1.0" id="katman_1" xmlns="http://www.w3.org/2000/svg" xmlns:xlink="http://www.w3.org/1999/xlink" x="0px" y="0px"
	 viewBox="0 0 600 450" style="enable-background:new 0 0 600 450;" xml:space="preserve">
<style type="text/css">
	.st0{fill:#E40625;}
	.st1{fill:#FFFFFF;}
</style>
<path class="st0" d="M254.1,209.6h13.6V253h-13.6V209.6z"/>
<path class="st0" d="M270.7,209.6h13.2v6h0.4c3.4-4.7,7.2-7.2,13.2-7.2c6,0,14.9,6.8,14.9,16.2v28.1h-13.6v-25.1
	c0-4.7-2.1-7.7-6.8-7.7c-4.7,0-7.7,3.8-7.7,8.9v23.8h-13.6V209.6z"/>
<path class="st0" d="M260.9,206.2c4.5,0,8.1-3.6,8.1-8.1c0-4.5-3.6-8.1-8.1-8.1s-8.1,3.6-8.1,8.1
	C252.8,202.6,256.5,206.2,260.9,206.2z"/>
<path class="st0" d="M409.3,209.2H408c-5.1,0-8.9,2.1-11.9,7.2h-0.4v-6.8h-13.2V253h13.6v-19.6c0-8.9,5.1-13.2,12.8-12.3
	L409.3,209.2z"/>
<path class="st0" d="M476.4,225.8c-5.5-0.8-10.2-1.3-10.2-4.7c0-3.4,2.6-3.8,6-3.8c3.4,0,6.4,1.3,6.8,5.1h12.8
	c-0.8-8.5-7.2-14-19.6-14c-12.3,0-18.7,4.7-18.7,14c0,9.4,8.1,12.3,15.3,13.6c7.2,1.3,11.1,1.3,11.1,5.1s-2.6,4.3-6.8,4.3
	c-4.3,0-6.8-1.7-7.7-5.1h-12.8c0.8,8.9,8.9,14.5,20.8,14.5c11.9,0,19.6-4.7,19.6-14.5C493,230.5,484.1,227.1,476.4,225.8z"/>
<path class="st0" d="M431.4,244.1c-5.5,0-8.9-3.8-9.8-9.4h31c0-8.9-2.6-16.2-7.7-20.8c-5.1-4.7-8.5-5.5-14.9-5.5
	c-13.2,0-22.1,9.8-22.1,23c0,13.2,8.9,23,23,23c5.5,0,9.8-1.3,13.6-3.8c3.6-2.4,6.2-6,7.2-10.2h-13.6
	C437.3,242.8,434.8,244.1,431.4,244.1z M430.5,218.1c4.7,0,7.7,3.4,8.1,8.5h-17C422.4,221.5,425,218.1,430.5,218.1z"/>
<path class="st0" d="M517.2,242.8h-2.1c-3,0-4.7-0.8-4.7-4.3v-20.4h7.2v-8.5h-7.2V196h-13.6v13.6h-4.3v8.5h4.3v23.4
	c0,9.4,5.5,11.9,13.6,11.9h6.8V242.8z"/>
<path class="st0" d="M337,242.8h-1.7c-3,0-4.7-0.8-4.7-4.3v-20.4h6.4v-8.5h-6.4V196H317v13.6h-4.3v8.5h4.7v23.4
	c0,9.4,5.5,11.9,13.6,11.9h6.4L337,242.8z"/>
<path class="st0" d="M336.6,231.3c0-12.8,8.9-23,22.1-23c6,0,11.1,2.1,14.9,5.5c3.8,3.4,7.7,12.3,7.7,20.8h-31.5
	c0.9,6,4.3,9.4,9.8,9.4s6-1.7,7.2-4.3h13.6c-1.1,4.2-3.6,7.8-7.2,10.2c-3.8,2.6-8.1,3.8-13.6,3.8
	C345.1,254.3,336.6,244.1,336.6,231.3z M367.2,226.6c-0.4-5.1-3.8-8.5-8.1-8.5c-4.3,0-8.1,3.4-8.9,8.5H367.2z"/>
<path class="st0" d="M205.7,192.6h23.8c7.2,0,12.8,2.1,16.6,5.5c3.8,3.4,6,8.9,6,14.9c0,11.5-8.1,19.6-20.4,19.6h-11.9v20h-14V192.6
	z M229.9,221.1c5.5,0,8.5-3.4,8.5-8.1c0-4.7-3-7.7-8.5-7.7h-10.2v15.7H229.9z"/>
<circle class="st1" cx="135.7" cy="225.3" r="52.6"/>
<path class="st0" d="M136.1,172.7c-12.4-0.1-24.4,4.2-33.9,12.1c-9.5,7.9-16,18.8-18.3,30.9c-2.3,12.1-0.2,24.7,5.9,35.4
	c6.1,10.8,15.7,19,27.3,23.4c-0.4-4.3-0.9-10.4,0-15.1l6.1-26.3c-1.1-2.4-1.7-5.1-1.7-7.8c0-7.3,4.3-12.9,9.5-12.9
	c5.2,0,6.5,3.5,6.5,7.3c0,3.9-3,11.2-4.3,17.7c-1.3,6.5,2.6,9.5,7.8,9.5c5.2,0,16.5-9.9,16.5-24.2s-9.1-21.6-22.1-21.6
	c-13,0-23.4,11.7-23.4,23.3c0,4.3,1.7,9.5,3.9,12.1c0.2,0.2,0.3,0.4,0.4,0.6c0.1,0.2,0.1,0.5,0.1,0.7l-1.3,6
	c-0.4,0.9-0.9,1.3-1.7,0.9c-6.5-3-10.8-12.5-10.8-20.3c0-16.4,12.1-31.9,35.1-31.9c23,0,32.5,12.9,32.5,30.2
	c0,17.3-11.7,32.8-27.3,32.8c-5.2,0-10.4-2.6-12.1-6L127,262c-1.3,4.7-4.3,10.4-6.5,13.8c7.2,2.1,14.9,2.7,22.3,1.6
	c7.5-1,14.6-3.7,21-7.7c6.4-4,11.8-9.4,15.9-15.7s6.8-13.4,8-20.9c1.1-7.4,0.6-15-1.4-22.3c-2.1-7.2-5.7-13.9-10.6-19.7
	c-4.9-5.7-11-10.4-17.8-13.6C151.1,174.4,143.6,172.7,136.1,172.7z"/>
</svg>
